<?xml version="1.0" encoding="UTF-8" standalone="no"?>
<!-- Created with Inkscape (http://www.inkscape.org/) -->

<svg
   xmlns:dc="http://purl.org/dc/elements/1.1/"
   xmlns:cc="http://creativecommons.org/ns#"
   xmlns:rdf="http://www.w3.org/1999/02/22-rdf-syntax-ns#"
   xmlns:svg="http://www.w3.org/2000/svg"
   xmlns="http://www.w3.org/2000/svg"
   xmlns:sodipodi="http://sodipodi.sourceforge.net/DTD/sodipodi-0.dtd"
   xmlns:inkscape="http://www.inkscape.org/namespaces/inkscape"
   width="157.29837mm"
   height="55.622963mm"
   viewBox="0 0 157.29837 55.622964"
   version="1.1"
   id="svg8"
   inkscape:version="0.92.3 (2405546, 2018-03-11)"
   sodipodi:docname="brid-logo.svg">
  <defs
     id="defs2" />
  <sodipodi:namedview
     id="base"
     pagecolor="#ffffff"
     bordercolor="#666666"
     borderopacity="1.0"
     inkscape:pageopacity="0.0"
     inkscape:pageshadow="2"
     inkscape:zoom="0.70710678"
     inkscape:cx="379.24092"
     inkscape:cy="-0.20977922"
     inkscape:document-units="mm"
     inkscape:current-layer="flowRoot10"
     showgrid="false"
     showguides="true"
     inkscape:guide-bbox="true"
     inkscape:snap-to-guides="true"
     inkscape:window-width="1366"
     inkscape:window-height="713"
     inkscape:window-x="0"
     inkscape:window-y="27"
     inkscape:window-maximized="1">
    <sodipodi:guide
       position="101.52945,-1.0133569"
       orientation="1,0"
       id="guide29"
       inkscape:locked="false" />
  </sodipodi:namedview>
  <metadata
     id="metadata5">
    <rdf:RDF>
      <cc:Work
         rdf:about="">
        <dc:format>image/svg+xml</dc:format>
        <dc:type
           rdf:resource="http://purl.org/dc/dcmitype/StillImage" />
        <dc:title></dc:title>
      </cc:Work>
    </rdf:RDF>
  </metadata>
  <g
     inkscape:label="Layer 1"
     inkscape:groupmode="layer"
     id="layer1"
     transform="translate(-23.627913,-87.661306)">
    <g
       aria-label="BRiD"
       transform="matrix(1.8847827,0,0,1.8847827,-153.47908,-544.69007)"
       style="font-style:normal;font-weight:normal;font-size:40px;line-height:1.25;font-family:sans-serif;letter-spacing:0px;word-spacing:0px;fill:#000000;fill-opacity:1;stroke:none"
       id="flowRoot10">
      <path
         d="m 93.966797,365.0152 v -28.4375 h 9.960933 q 5.17579,0 7.85157,1.99218 2.67578,1.97266 2.67578,5.80079 0,2.08984 -1.07422,3.6914 -1.07422,1.58203 -2.98828,2.32422 2.1875,0.54688 3.4375,2.20703 1.26953,1.66016 1.26953,4.0625 0,4.10156 -2.61719,6.21094 -2.61719,2.10937 -7.46094,2.14844 z m 5.859375,-12.38282 v 7.67579 h 5.019528 q 2.07032,0 3.22266,-0.97657 1.17187,-0.99609 1.17187,-2.73437 0,-3.90625 -4.04296,-3.96485 z m 0,-4.14062 h 4.335938 q 4.43359,-0.0781 4.43359,-3.53516 0,-1.93359 -1.13281,-2.77343 -1.11328,-0.85938 -3.53516,-0.85938 h -4.101558 z"
         style="font-style:normal;font-variant:normal;font-weight:bold;font-stretch:normal;font-family:Roboto;-inkscape-font-specification:'Roboto Bold';fill:#ffffff"
         id="path18"
         inkscape:connector-curvature="0" />
      <path
         d="m 130.04102,354.60504 h -4.66797 v 10.41016 h -5.85938 v -28.4375 h 10.56641 q 5.03906,0 7.77344,2.24609 2.73437,2.24609 2.73437,6.34766 0,2.91015 -1.26953,4.86328 -1.25,1.93359 -3.80859,3.08594 l 6.15234,11.62109 v 0.27344 h -6.28906 z m -4.66797,-4.74609 h 4.72656 q 2.20703,0 3.41797,-1.11328 1.21094,-1.13282 1.21094,-3.10547 0,-2.01172 -1.15235,-3.16407 -1.13281,-1.15234 -3.49609,-1.15234 h -4.70703 z"
         style="font-style:normal;font-variant:normal;font-weight:bold;font-stretch:normal;font-family:Roboto;-inkscape-font-specification:'Roboto Bold';fill:#ffffff"
         id="path20"
         inkscape:connector-curvature="0" />
      <path
         style="font-style:normal;font-variant:normal;font-weight:bold;font-stretch:normal;font-family:Roboto;-inkscape-font-specification:'Roboto Bold';fill:#ffffff;stroke-width:7.12358809"
         d="m 472.89062,331.31836 c -6.95661,0 -12.47539,1.9461 -16.55664,5.8418 -3.98845,3.8957 -5.98242,8.8596 -5.98242,14.88867 0,6.12187 2.03985,11.12969 6.1211,15.02539 4.17394,3.8957 9.64685,5.84375 16.41796,5.84375 6.77112,0 12.19806,-1.94805 16.2793,-5.84375 4.174,-3.8957 6.25977,-8.90352 6.25977,-15.02539 0,-6.02907 -2.03985,-10.99297 -6.1211,-14.88867 -4.08119,-3.8957 -9.55406,-5.8418 -16.41797,-5.8418 z m -20.17382,59.6875 v 150.54102 h 15.48828 v -71.42774 h 9.59765 v 71.42774 h 15.26172 V 391.00586 Z"
         transform="matrix(0.14037869,0,0,0.14037869,81.43065,288.99356)"
         id="path22"
         inkscape:connector-curvature="0"
         sodipodi:nodetypes="scscscscsccccccccc" />
      <path
         d="m 155.68555,365.0152 v -28.4375 h 8.75 q 3.75,0 6.69922,1.69922 2.96875,1.67968 4.6289,4.80468 1.66016,3.10547 1.66016,7.07032 v 1.30859 q 0,3.96484 -1.64063,7.05078 -1.62109,3.08594 -4.58984,4.78516 -2.96875,1.69922 -6.69922,1.71875 z m 5.85937,-23.69141 v 18.98438 h 2.83203 q 3.4375,0 5.25391,-2.2461 1.81641,-2.24609 1.85547,-6.42578 v -1.50391 q 0,-4.33593 -1.79688,-6.5625 -1.79687,-2.24609 -5.2539,-2.24609 z"
         style="font-style:normal;font-variant:normal;font-weight:bold;font-stretch:normal;font-family:Roboto;-inkscape-font-specification:'Roboto Bold';fill:#ffffff"
         id="path24"
         inkscape:connector-curvature="0" />
    </g>
  </g>
</svg>
