<?xml version="1.0" encoding="UTF-8" standalone="no"?>
<!-- Created with Inkscape (http://www.inkscape.org/) -->

<svg
   width="6.0306401mm"
   height="7.7152901mm"
   viewBox="0 0 6.0306401 7.7152901"
   version="1.1"
   id="svg1"
   xmlns="http://www.w3.org/2000/svg"
   xmlns:svg="http://www.w3.org/2000/svg">
  <defs
     id="defs1" />
  <g
     id="layer1"
     transform="translate(-48.575098,-109.15783)">
    <path
       id="text1"
       style="color:#000000;font-style:normal;font-variant:normal;font-weight:bold;font-stretch:normal;font-size:10.5833px;line-height:1.25;font-family:'Hack Nerd Font';-inkscape-font-specification:'Hack Nerd Font';font-variant-ligatures:normal;font-variant-position:normal;font-variant-caps:normal;font-variant-numeric:normal;font-variant-alternates:normal;font-variant-east-asian:normal;font-feature-settings:normal;font-variation-settings:normal;text-indent:0;text-align:start;text-decoration-line:none;text-decoration-style:solid;text-decoration-color:#000000;letter-spacing:normal;word-spacing:normal;text-transform:none;writing-mode:lr-tb;direction:ltr;text-orientation:mixed;dominant-baseline:auto;baseline-shift:baseline;text-anchor:start;white-space:normal;shape-padding:0;shape-margin:0;inline-size:0;clip-rule:nonzero;display:inline;overflow:visible;visibility:visible;isolation:auto;mix-blend-mode:normal;color-interpolation:sRGB;color-interpolation-filters:linearRGB;solid-color:#000000;solid-opacity:1;vector-effect:none;fill:#ffffff;fill-opacity:1;fill-rule:nonzero;stroke:none;stroke-linecap:butt;stroke-linejoin:miter;stroke-miterlimit:4;stroke-dasharray:none;stroke-dashoffset:0;stroke-opacity:1;-inkscape-stroke:none;color-rendering:auto;image-rendering:auto;shape-rendering:auto;text-rendering:auto;enable-background:accumulate;stop-color:#000000;stop-opacity:1"
       d="m 50.657658,109.15783 -2.08256,7.71529 h 2.907833 C 51.313856,116.6123 51.2292,116.2831 51.2292,115.88507 v -2.31149 h -1.153418 v -0.57567 h 2.019515 v 2.88716 c 0,0.32522 0.07215,0.57302 0.216524,0.74362 0.115024,0.13593 0.272593,0.2168 0.471289,0.24443 h 1.822628 l -2.082561,-7.71529 z m 0.618567,2.09703 h 0.677995 c 0.09416,0 0.141077,0.0399 0.141077,0.11989 v 0.69143 c 0,0.08 -0.04692,0.11989 -0.141077,0.11989 h -0.677995 c -0.09416,0 -0.141593,-0.0399 -0.141593,-0.11989 v -0.69143 c 0,-0.08 0.04744,-0.11989 0.141593,-0.11989 z" />
  </g>
</svg>
