<?xml version="1.0" encoding="UTF-8" standalone="no"?>
<svg
   xmlns:dc="http://purl.org/dc/elements/1.1/"
   xmlns:cc="http://creativecommons.org/ns#"
   xmlns:rdf="http://www.w3.org/1999/02/22-rdf-syntax-ns#"
   xmlns:svg="http://www.w3.org/2000/svg"
   xmlns="http://www.w3.org/2000/svg"
   xmlns:xlink="http://www.w3.org/1999/xlink"
   xmlns:sodipodi="http://sodipodi.sourceforge.net/DTD/sodipodi-0.dtd"
   xmlns:inkscape="http://www.inkscape.org/namespaces/inkscape"
   viewBox="0 0 426.85999 341.5"
   version="1.1"
   id="svg6083"
   sodipodi:docname="hacksbseg-logo.svg"
   width="426.85999"
   height="341.5"
   inkscape:version="0.92.3 (2405546, 2018-03-11)">
  <metadata
     id="metadata6087">
    <rdf:RDF>
      <cc:Work
         rdf:about="">
        <dc:format>image/svg+xml</dc:format>
        <dc:type
           rdf:resource="http://purl.org/dc/dcmitype/StillImage" />
        <dc:title>Camiseta-HackSBSeg</dc:title>
      </cc:Work>
    </rdf:RDF>
  </metadata>
  <sodipodi:namedview
     pagecolor="#ffffff"
     bordercolor="#666666"
     borderopacity="1"
     objecttolerance="10"
     gridtolerance="10"
     guidetolerance="10"
     inkscape:pageopacity="0"
     inkscape:pageshadow="2"
     inkscape:window-width="1366"
     inkscape:window-height="713"
     id="namedview6085"
     showgrid="false"
     inkscape:zoom="0.903125"
     inkscape:cx="250.98848"
     inkscape:cy="130.84001"
     inkscape:window-x="0"
     inkscape:window-y="27"
     inkscape:window-maximized="1"
     inkscape:current-layer="Camiseta" />
  <defs
     id="defs4961">
    <style
       id="style4920">.cls-1{fill:#1b3c59;}.cls-2,.cls-21,.cls-4{opacity:0.25;}.cls-10,.cls-11,.cls-12,.cls-13,.cls-14,.cls-15,.cls-16,.cls-17,.cls-18,.cls-19,.cls-2,.cls-20,.cls-21,.cls-22,.cls-23,.cls-3,.cls-33,.cls-34,.cls-4,.cls-40,.cls-5,.cls-6,.cls-7,.cls-8,.cls-9{isolation:isolate;}.cls-2{fill:url(#Gradiente_sem_nome_3);}.cls-11,.cls-12,.cls-15,.cls-16,.cls-21,.cls-26,.cls-27,.cls-3,.cls-6,.cls-7{fill:none;}.cls-11,.cls-12,.cls-16,.cls-21,.cls-3,.cls-6{stroke:#000;}.cls-3{stroke-width:1.44px;}.cls-11,.cls-12,.cls-3{opacity:0.2;}.cls-10,.cls-13,.cls-14,.cls-19,.cls-20,.cls-5,.cls-8,.cls-9{opacity:0.1;}.cls-5{fill:url(#Gradiente_sem_nome_13);}.cls-11,.cls-21,.cls-6{stroke-width:1.5px;}.cls-16,.cls-6{opacity:0.3;}.cls-15,.cls-7{stroke:#fff;opacity:0.05;}.cls-7{stroke-width:1.6px;}.cls-8{fill:url(#Gradiente_sem_nome_13-2);}.cls-9{fill:url(#Gradiente_sem_nome_7);}.cls-10{fill:url(#Gradiente_sem_nome_7-2);}.cls-12,.cls-15,.cls-16{stroke-width:1.2px;}.cls-13{fill:url(#Gradiente_sem_nome_13-3);}.cls-14{fill:url(#Gradiente_sem_nome_13-4);}.cls-17,.cls-18{opacity:0.08;}.cls-17{fill:url(#Gradiente_sem_nome_11);}.cls-18{fill:url(#Gradiente_sem_nome_11-2);}.cls-19{fill:url(#Gradiente_sem_nome_13-5);}.cls-20{fill:url(#Gradiente_sem_nome_13-6);}.cls-22,.cls-23{opacity:0.06;}.cls-22{fill:url(#Gradiente_sem_nome_15);}.cls-23{fill:url(#Gradiente_sem_nome_15-2);}.cls-24{fill:#f2f2f0;}.cls-25{fill:#eee;}.cls-26,.cls-27{stroke:#f2f2f0;stroke-miterlimit:10;stroke-width:6px;}.cls-27{stroke-linecap:round;}.cls-28,.cls-30,.cls-31,.cls-34,.cls-35,.cls-40{fill:#fff;}.cls-29{fill:#c8c8c8;}.cls-30{fill-rule:evenodd;}.cls-31{font-size:8.03px;font-family:Verdana;letter-spacing:-0.02em;}.cls-32{letter-spacing:-0.04em;}.cls-34{font-size:18.48px;}.cls-34,.cls-40{font-family:BitstreamVeraSans-Bold, Bitstream Vera Sans;font-weight:700;}.cls-35{font-size:35.82px;font-family:Montserrat-Regular, Montserrat;}.cls-36{letter-spacing:-0.05em;}.cls-37{letter-spacing:-0.03em;}.cls-38{letter-spacing:-0.01em;}.cls-39{letter-spacing:-0.02em;}.cls-40{font-size:13.24px;}.cls-41{fill:#fdfdfd;}.cls-42{fill:#d4d4d4;}</style>
    <radialGradient
       id="Gradiente_sem_nome_3"
       cx="888.26001"
       cy="25056.84"
       r="135.38"
       gradientTransform="matrix(1,0,0,-0.34,-5.9,8719.69)"
       gradientUnits="userSpaceOnUse">
      <stop
         offset="0"
         stop-opacity="0.44"
         id="stop4922" />
      <stop
         offset="1"
         id="stop4924" />
    </radialGradient>
    <radialGradient
       id="Gradiente_sem_nome_13"
       cx="10447.73"
       cy="8162.6602"
       r="122.63"
       gradientTransform="matrix(-1.08,-1.43,-0.96,0.73,19597.64,9546.66)"
       gradientUnits="userSpaceOnUse">
      <stop
         offset="0"
         id="stop4927" />
      <stop
         offset="0.5"
         stop-opacity="0.61"
         id="stop4929" />
      <stop
         offset="1"
         stop-opacity="0"
         id="stop4931" />
    </radialGradient>
    <radialGradient
       id="Gradiente_sem_nome_13-2"
       cx="6825.8101"
       cy="1037.27"
       r="122.63"
       gradientTransform="matrix(1.08,-1.43,0.96,0.73,-7087.13,9546.66)"
       xlink:href="#Gradiente_sem_nome_13" />
    <radialGradient
       id="Gradiente_sem_nome_7"
       cx="2978.5901"
       cy="19721.279"
       r="171.03999"
       gradientTransform="matrix(0.94,-0.35,-0.22,-0.58,2052.76,12687.4)"
       gradientUnits="userSpaceOnUse">
      <stop
         offset="0"
         id="stop4935" />
      <stop
         offset="1"
         stop-opacity="0"
         id="stop4937" />
    </radialGradient>
    <radialGradient
       id="Gradiente_sem_nome_7-2"
       cx="13047.03"
       cy="13642.88"
       r="171.03999"
       gradientTransform="matrix(-0.94,-0.35,0.22,-0.58,10457.21,12687.4)"
       xlink:href="#Gradiente_sem_nome_7" />
    <radialGradient
       id="Gradiente_sem_nome_13-3"
       cx="3202.0801"
       cy="4034.1899"
       r="122.51"
       gradientTransform="matrix(0.6,2.37,1.09,-0.28,-5802.68,-5742.5)"
       xlink:href="#Gradiente_sem_nome_13" />
    <radialGradient
       id="Gradiente_sem_nome_13-4"
       cx="4287.4102"
       cy="13256.72"
       r="122.51"
       gradientTransform="matrix(-0.6,2.37,-1.09,-0.28,18312.28,-5742.5)"
       xlink:href="#Gradiente_sem_nome_13" />
    <radialGradient
       id="Gradiente_sem_nome_11"
       cx="2523.6201"
       cy="2601.9399"
       r="317.78"
       gradientTransform="matrix(1.14,0,0,1.3,-661.51,-2909.24)"
       gradientUnits="userSpaceOnUse">
      <stop
         offset="0"
         id="stop4943" />
      <stop
         offset="0.69"
         id="stop4945" />
      <stop
         offset="1"
         stop-opacity="0"
         id="stop4947" />
    </radialGradient>
    <radialGradient
       id="Gradiente_sem_nome_11-2"
       cx="11461.96"
       cy="2601.9399"
       r="317.78"
       gradientTransform="matrix(-1.14,0,0,1.3,15208.09,-2909.24)"
       xlink:href="#Gradiente_sem_nome_11" />
    <radialGradient
       id="Gradiente_sem_nome_13-5"
       cx="10348.65"
       cy="7967.75"
       r="122.63"
       gradientTransform="matrix(-1.08,-1.43,-0.96,0.73,20614.47,9546.66)"
       xlink:href="#Gradiente_sem_nome_13" />
    <radialGradient
       id="Gradiente_sem_nome_13-6"
       cx="6924.8901"
       cy="1232.1801"
       r="122.63"
       gradientTransform="matrix(1.08,-1.43,0.96,0.73,-6070.3,9546.66)"
       xlink:href="#Gradiente_sem_nome_13" />
    <radialGradient
       id="Gradiente_sem_nome_15"
       cx="1700.0601"
       cy="4986.4199"
       r="122.51"
       gradientTransform="matrix(0.78,1.8,1.21,-0.53,-5438.72,544.89)"
       gradientUnits="userSpaceOnUse">
      <stop
         offset="0"
         id="stop4953" />
      <stop
         offset="0.58"
         stop-opacity="0.61"
         id="stop4955" />
      <stop
         offset="1"
         stop-opacity="0"
         id="stop4957" />
    </radialGradient>
    <radialGradient
       id="Gradiente_sem_nome_15-2"
       cx="3772.3701"
       cy="12060.39"
       r="122.51"
       gradientTransform="matrix(-0.78,1.8,-1.21,-0.53,19982.89,544.89)"
       xlink:href="#Gradiente_sem_nome_15" />
  </defs>
  <title
     id="title4963">Camiseta-HackSBSeg</title>
  <g
     id="Camiseta"
     transform="translate(-669.58,-449.75)">
    <g
       id="g10">
      <path
         id="path61736"
         class="cls-6"
         d="m 502.09,1269.17 c 0,0 50.16,60.16 390,60.16 308.62,0 369.74,-58 369.74,-58"
         inkscape:connector-curvature="0"
         style="opacity:0.3;isolation:isolate;fill:none;stroke:#000000;stroke-width:1.5px" />
      <g
         id="g62265">
        <path
           id="path62048-8-5"
           class="cls-7"
           d="m 1585.15,619.59 c 0,0 84.34,75.6 199.7,86.09"
           inkscape:connector-curvature="0"
           style="opacity:0.05;isolation:isolate;fill:none;stroke:#ffffff;stroke-width:1.60000002px" />
        <path
           id="path62048-82"
           class="cls-12"
           d="m 1585.15,617 c 0,0 84.34,75.6 199.7,86.09"
           inkscape:connector-curvature="0"
           style="opacity:0.2;isolation:isolate;fill:none;stroke:#000000;stroke-width:1.20000005px" />
        <path
           id="path62048-8-1-3"
           class="cls-7"
           d="m 2800.66,619.59 c 0,0 -84.34,75.6 -199.7,86.09"
           inkscape:connector-curvature="0"
           style="opacity:0.05;isolation:isolate;fill:none;stroke:#ffffff;stroke-width:1.60000002px" />
        <path
           id="path62048-1-0"
           class="cls-12"
           d="m 2800.66,617 c 0,0 -84.34,75.6 -199.7,86.09"
           inkscape:connector-curvature="0"
           style="opacity:0.2;isolation:isolate;fill:none;stroke:#000000;stroke-width:1.20000005px" />
      </g>
      <path
         id="path61736-5"
         class="cls-15"
         d="m 502.09,1271.43 c 0,0 50.16,60.15 390,60.15 308.62,0 369.74,-58 369.74,-58"
         inkscape:connector-curvature="0"
         style="opacity:0.05;isolation:isolate;fill:none;stroke:#ffffff;stroke-width:1.20000005px" />
    </g>
    <polygon
       class="cls-24"
       points="941.01,718.43 937.61,708.53 980.39,710.5 980.39,718.43 "
       id="polygon5007"
       style="fill:#f2f2f0" />
    <polygon
       class="cls-24"
       points="936.36,722.2 880.34,565.03 896.83,452.01 890.08,449.75 874.84,563.63 920.87,721.5 950.09,791.25 971.45,786.79 "
       id="polygon5009"
       style="fill:#f2f2f0" />
    <polygon
       class="cls-24"
       points="859.12,591.98 838.91,706.5 851.64,705.77 "
       id="polygon5011"
       style="fill:#f2f2f0" />
    <path
       class="cls-24"
       d="m 795,713.41 c 0,0 10.35,9.64 14.41,11.82 4.06,2.18 15.16,7.58 15.16,7.58 l 15.58,-4.06 c 0,0 11.16,-5.4 14.73,-6.49 3.57,-1.09 15.28,-3.27 18,-3.7 2.72,-0.43 15.53,-2.73 15.53,-2.73 L 886.93,710 Z"
       id="path5013"
       inkscape:connector-curvature="0"
       style="fill:#f2f2f0" />
    <path
       class="cls-25"
       d="m 875.91,461.21 8.79,-11.46 -15.23,113.88 46,157.87 29.22,69.75 h -54.9 l 8.72,-17.67 -14.14,-8.72 -45.24,1.88 -13,9.19 5.18,14.38 H 799.8 l 12.55,-38.12 11.5,2 -0.57,5.44 77.92,-6.68 -2.2,-17.86 c 0,0 -4.79,-4.24 -13.28,-4.63 -8.49,-0.39 -45.94,6.67 -45.94,6.67 l -1.34,-3.06 c 0,0 14.69,-7.86 27.1,-9.9 12.41,-2.04 29.84,-5.17 29.84,-5.17 l -33.69,-137.07 -5.28,3.56 -23.57,121 -14.14,0.74 29.76,-130.18 c 0,0 -14.14,-85.05 -13.79,-86.82 0.35,-1.77 8.72,2.6 8.72,2.6 l 12.49,73.32 5.34,-2.83 5.85,-41 -16.66,11.78 -1.62,-9.55 20.05,-12.83 z"
       id="path5015"
       style="fill:#ffffff"
       inkscape:connector-curvature="0" />
    <path
       class="cls-25"
       d="m 844.49,754.16 14.71,-2.43 c 0,0 -29.47,-5.25 -48.14,-18 -18.67,-12.75 -23.85,-19 -29.67,-23.75 C 775.57,705.23 767,698.45 767,698.45 l -97.42,12.13 c 0,0 54.12,23.44 86.5,29.75 32.38,6.31 88.41,13.83 88.41,13.83 z"
       id="path5017"
       style="fill:#ffffff"
       inkscape:connector-curvature="0" />
    <polygon
       class="cls-26"
       points="689.75,579.64 728.19,601.84 766.63,579.64 766.63,535.26 728.19,513.07 689.75,535.26 "
       id="polygon5019"
       style="fill:none;stroke:#f2f2f0;stroke-width:6px;stroke-miterlimit:10" />
    <polygon
       class="cls-26"
       points="951.57,637.14 980.39,653.78 1009.22,637.14 1009.22,603.85 980.39,587.21 951.57,603.85 "
       id="polygon5021"
       style="fill:none;stroke:#f2f2f0;stroke-width:6px;stroke-miterlimit:10" />
    <polygon
       class="cls-26"
       points="1020.07,531.04 1039.29,542.14 1058.51,531.04 1058.51,508.85 1039.29,497.75 1020.07,508.85 "
       id="polygon5023"
       style="fill:none;stroke:#f2f2f0;stroke-width:6px;stroke-miterlimit:10" />
    <polygon
       class="cls-26"
       points="1055.01,631.59 1074.22,642.69 1093.44,631.59 1093.44,609.4 1074.22,598.3 1055.01,609.4 "
       id="polygon5025"
       style="fill:none;stroke:#f2f2f0;stroke-width:6px;stroke-miterlimit:10" />
    <path
       class="cls-27"
       d="m 746.92,522.47 24.13,-28.22 c 0,0 2.91,-3.8 10.43,-3.8 a 20.62,20.62 0 0 1 12.74,4.73 L 828,519.93"
       id="path5027"
       style="fill:none;stroke:#f2f2f0;stroke-width:6px;stroke-linecap:round;stroke-miterlimit:10"
       inkscape:connector-curvature="0" />
    <path
       class="cls-27"
       d="M 922.32313,660.63461 935.49,672.6 c 2.28804,1.36116 4.85663,2.18201 7.51,2.4 4.13,0.25 8.25,-3.88 8.25,-3.88 l 17,-24.39"
       id="path5029"
       style="fill:none;stroke:#f2f2f0;stroke-width:6px;stroke-linecap:round;stroke-miterlimit:10"
       inkscape:connector-curvature="0"
       sodipodi:nodetypes="ccccc" />
    <line
       class="cls-27"
       x1="1009.84"
       y1="621.83002"
       x2="1055.01"
       y2="621.83002"
       id="line5031"
       style="fill:none;stroke:#f2f2f0;stroke-width:6px;stroke-linecap:round;stroke-miterlimit:10" />
    <line
       class="cls-26"
       x1="995.72998"
       y1="596.06"
       x2="1029.9399"
       y2="536.28998"
       id="line5033"
       style="fill:none;stroke:#f2f2f0;stroke-width:6px;stroke-miterlimit:10" />
  </g>
</svg>
