<svg xmlns="http://www.w3.org/2000/svg" viewBox="0 0 181.76 180.77">
    <defs>
        <style>.cls-1{fill:#ccc;}.cls-2{fill:#fff;}</style>
    </defs>
    <title>Icone branco</title>
    <g id="Modelo_2.1" data-name="Modelo 2.1">
        <path class="cls-1" d="M115.12,46.55a261.93,261.93,0,0,0-35.5,11.63C32.32,77.4-1.18,106,2.3,123.29l1.45-.59c-.09-.19-.18-.38-.26-.58-5.14-12.63,30-38.84,78.5-58.54A342.22,342.22,0,0,1,115.12,52Z"/>
        <path class="cls-1" d="M118.1,45.83v5.32c32.33-9,57.17-9.73,61-.37a5.76,5.76,0,0,1,.35,1.16l1.33-.53C174.47,40.17,149.54,38.53,118.1,45.83Z"/>
        <path class="cls-2" d="M108.86,120.57c-1.18,8.57-9.76,15.07-18.66,15.07a21.83,21.83,0,0,1-13.55-5.13c-4.49,1.29-7.36,2-11.62,3v28.45h50.34V117.72C112.84,118.87,111.49,119.47,108.86,120.57Z"/>
        <path class="cls-2" d="M70.11,117.61a23.86,23.86,0,0,1,.11-4.91c1-11.34,10-17.19,19.73-17.3,7.52-.08,12.9,2.86,16.35,8.42,3.39-1.42,5.59-2.42,8.82-3.9V11.42H64.79V119.15C67.36,118.43,67.46,118.43,70.11,117.61Zm19.77-96.3a12.4,12.4,0,1,1-12.4,12.4A12.4,12.4,0,0,1,89.88,21.31Z"/>
        <circle class="cls-2" cx="160.69" cy="79.33" r="12.74"/>
        <circle class="cls-1" cx="13.32" cy="102.02" r="7.08"/>
        <circle class="cls-1" cx="137.17" cy="43.9" r="7.08"/>
        <path class="cls-2" d="M180.87,51.62c-.32-.78-2.26-1.8-2.26-1.8,4.67,12.28-27.6,37.25-73.53,56.63a17.6,17.6,0,0,0-32.57,11.93c-36.22,11.21-65.16,13.05-69.28,2.93,0-.14-1-2.07-1.09-2.21a15.72,15.72,0,0,0,.16,4.13c5.63,13.86,37.45,15.84,75.5,4.88a17.6,17.6,0,0,0,29.47-10.42C155.12,97.68,187.66,68.32,180.87,51.62ZM93.05,123.83l-2-3.57a13.61,13.61,0,0,1-.63-1.35,9.65,9.65,0,0,1-.46-1.34,8.82,8.82,0,0,1-.46,1.34,9.52,9.52,0,0,1-.75,1.38l-2.15,3.54h-6L86.75,115l-5.87-8.59h6.34l1.72,3.24a11.37,11.37,0,0,1,.58,1.28c.17.44.33.9.47,1.39a12.11,12.11,0,0,1,.48-1.35,11.76,11.76,0,0,1,.7-1.36l1.85-3.2h6l-6,8.49,6.3,9Z"/>
        <polygon class="cls-2" points="114.69 19.58 118.1 19.58 118.1 98.34 121.79 96.42 121.79 15.81 114.69 15.81 114.69 19.58"/>
        <polygon class="cls-2" points="121.65 161.91 118.1 161.91 118.1 116.43 121.65 114.81 121.65 161.91"/>
    </g>
</svg>